<mxfile host="app.diagrams.net" agent="Mozilla/5.0 (Windows NT 10.0; Win64; x64) AppleWebKit/537.36 (KHTML, like Gecko) Chrome/137.0.0.0 Safari/537.36" version="27.2.0">
  <diagram name="Page-1" id="utWv8BZhxlsyuo7WU0T1">
    <mxGraphModel dx="6015" dy="3088" grid="1" gridSize="10" guides="1" tooltips="1" connect="1" arrows="1" fold="1" page="1" pageScale="1" pageWidth="850" pageHeight="1100" math="0" shadow="0">
      <root>
        <mxCell id="0" />
        <mxCell id="1" parent="0" />
        <mxCell id="EVwQ-bGCRmoTNths_p_6-1" value="" style="whiteSpace=wrap;html=1;" vertex="1" parent="1">
          <mxGeometry x="-110" y="-60" width="1630" height="1710" as="geometry" />
        </mxCell>
        <mxCell id="MTuAK9Vd22_HiNju8fyP-76" value="" style="fillColor=none;strokeColor=none;pointerEvents=0;fontStyle=0;html=1;whiteSpace=wrap;container=1;collapsible=0;childLayout=stackLayout;resizeParent=1;dropTarget=0;fontSize=13;spacing=0;rounded=1;absoluteArcSize=1;arcSize=9;strokeWidth=NaN;" parent="1" vertex="1">
          <mxGeometry x="300" y="-45" width="705" height="1678.583984374971" as="geometry" />
        </mxCell>
        <mxCell id="MTuAK9Vd22_HiNju8fyP-77" value="Python" style="swimlane;html=1;whiteSpace=wrap;container=1;connectable=0;collapsible=0;startSize=30;dropTarget=0;rounded=0;spacing=0;strokeColor=#124E9E;strokeWidth=NaN;fontSize=16.7;fontStyle=1;fillColor=#B2CBF0;swimlaneFillColor=#F8FAFF;" parent="MTuAK9Vd22_HiNju8fyP-76" vertex="1">
          <mxGeometry width="705" height="1678.583984374971" as="geometry" />
        </mxCell>
        <mxCell id="MTuAK9Vd22_HiNju8fyP-78" value="" style="fillColor=#fff2cc;strokeColor=#d6b656;pointerEvents=0;fontStyle=0;html=1;whiteSpace=wrap;container=1;collapsible=0;childLayout=stackLayout;resizeParent=1;dropTarget=0;fontSize=13;spacing=0;rounded=1;absoluteArcSize=1;arcSize=9;strokeWidth=NaN;gradientColor=#ffd966;" parent="1" vertex="1">
          <mxGeometry x="1020" y="-45" width="480" height="1678.583984375" as="geometry" />
        </mxCell>
        <mxCell id="MTuAK9Vd22_HiNju8fyP-79" value="LLM" style="swimlane;html=1;whiteSpace=wrap;container=1;connectable=0;collapsible=0;startSize=30;dropTarget=0;rounded=0;spacing=0;strokeColor=#b46504;strokeWidth=NaN;fontSize=16.7;fontStyle=1;fillColor=#FAE699;swimlaneFillColor=#fff9ed;" parent="MTuAK9Vd22_HiNju8fyP-78" vertex="1">
          <mxGeometry width="480" height="1678.583984375" as="geometry" />
        </mxCell>
        <mxCell id="MTuAK9Vd22_HiNju8fyP-80" value="" style="fillColor=none;strokeColor=none;pointerEvents=0;fontStyle=0;html=1;whiteSpace=wrap;container=1;collapsible=0;childLayout=stackLayout;resizeParent=1;dropTarget=0;fontSize=13;spacing=0;rounded=1;absoluteArcSize=1;arcSize=9;strokeWidth=NaN;" parent="1" vertex="1">
          <mxGeometry x="-90" y="-45" width="375" height="1678.583984375" as="geometry" />
        </mxCell>
        <mxCell id="MTuAK9Vd22_HiNju8fyP-81" value="Web app" style="swimlane;html=1;whiteSpace=wrap;container=1;connectable=0;collapsible=0;startSize=30;dropTarget=0;rounded=0;spacing=0;strokeColor=#10739e;fillColor=#b1ddf0;strokeWidth=NaN;fontSize=16.7;fontStyle=1;swimlaneFillColor=#f9fbff;glass=0;" parent="MTuAK9Vd22_HiNju8fyP-80" vertex="1">
          <mxGeometry width="375" height="1678.583984375" as="geometry" />
        </mxCell>
        <mxCell id="MTuAK9Vd22_HiNju8fyP-82" value="" style="fillColor=none;strokeColor=none;pointerEvents=0;fontStyle=0;html=1;whiteSpace=wrap;container=1;collapsible=0;childLayout=stackLayout;resizeParent=1;dropTarget=0;fontSize=13;spacing=0;strokeOpacity=100;fillOpacity=100;rounded=1;absoluteArcSize=1;arcSize=9;strokeWidth=1.5;" parent="1" vertex="1">
          <mxGeometry x="315" y="499" width="675" height="969.7386879231136" as="geometry" />
        </mxCell>
        <mxCell id="MTuAK9Vd22_HiNju8fyP-83" value="Langchain wrapper" style="swimlane;html=1;whiteSpace=wrap;container=1;connectable=0;collapsible=0;startSize=30;dropTarget=0;rounded=0;spacing=0;strokeColor=#9391ff;strokeOpacity=100;fillOpacity=100;strokeWidth=1.5;fontSize=16.7;fontStyle=1;fillColor=#e3e3ff;swimlaneFillColor=#f7f7ff;" parent="MTuAK9Vd22_HiNju8fyP-82" vertex="1">
          <mxGeometry width="675" height="969.7386879231136" as="geometry" />
        </mxCell>
        <mxCell id="MTuAK9Vd22_HiNju8fyP-85" value="Read&lt;br&gt;documents" style="html=1;overflow=block;blockSpacing=1;whiteSpace=wrap;shape=mxgraph.flowchart.multi-document;fontSize=16.7;fontStyle=1;spacing=3.8;strokeOpacity=100;rounded=1;absoluteArcSize=1;arcSize=9;fillColor=default;strokeWidth=NaN;lucidId=ug-sG8mnH39A;fillStyle=auto;gradientColor=none;" parent="1" vertex="1">
          <mxGeometry x="344" y="38" width="163" height="105" as="geometry" />
        </mxCell>
        <mxCell id="MTuAK9Vd22_HiNju8fyP-86" value="&lt;div style=&quot;display: flex; justify-content: center; text-align: center; align-items: baseline; font-size: 0; line-height: 1.25;margin-top: -2px;&quot;&gt;&lt;span&gt;&lt;span style=&quot;font-size:16.7px;font-weight: bold;&quot;&gt;Extract text&lt;/span&gt;&lt;span style=&quot;font-size:13px;&quot;&gt;&lt;br&gt;&lt;/span&gt;&lt;/span&gt;&lt;/div&gt;&lt;div style=&quot;display: flex; justify-content: center; text-align: center; align-items: baseline; line-height: 1.25; margin-top: -2px;&quot;&gt;&lt;font style=&quot;font-size: 14px;&quot;&gt;(Single string from documet text)&lt;/font&gt;&lt;/div&gt;" style="html=1;overflow=block;blockSpacing=1;whiteSpace=wrap;fontSize=13;spacing=9;strokeOpacity=100;fillOpacity=100;rounded=1;absoluteArcSize=1;arcSize=9;fillColor=#ffffff;strokeWidth=1.5;lucidId=Th-sKgO_oMy_;" parent="1" vertex="1">
          <mxGeometry x="570" y="42" width="168" height="96" as="geometry" />
        </mxCell>
        <mxCell id="MTuAK9Vd22_HiNju8fyP-87" value="" style="html=1;jettySize=18;whiteSpace=wrap;fontSize=13;strokeColor=#3a414a;strokeOpacity=100;strokeWidth=1.5;rounded=1;arcSize=12;edgeStyle=orthogonalEdgeStyle;startArrow=none;endArrow=block;endFill=1;exitX=1.005;exitY=0.5;exitPerimeter=0;entryX=-0.004;entryY=0.5;entryPerimeter=0;lucidId=4h-sXy5aR9FB;" parent="1" source="MTuAK9Vd22_HiNju8fyP-85" target="MTuAK9Vd22_HiNju8fyP-86" edge="1">
          <mxGeometry width="100" height="100" relative="1" as="geometry">
            <Array as="points" />
          </mxGeometry>
        </mxCell>
        <mxCell id="MTuAK9Vd22_HiNju8fyP-88" value="" style="strokeColor=none;fillColor=none;whiteSpace=wrap;fontSize=13.3;align=left;spacing=3.8;strokeOpacity=100;fillOpacity=100;rounded=1;absoluteArcSize=1;arcSize=9;strokeWidth=1.5;html=1;" parent="1" vertex="1">
          <mxGeometry x="1267" y="30" width="210" height="120" as="geometry" />
        </mxCell>
        <mxCell id="MTuAK9Vd22_HiNju8fyP-89" value="" style="shape=curlyBracket;rounded=1;flipH=1;whiteSpace=wrap;fontSize=13.3;align=left;spacing=3.8;strokeOpacity=100;fillOpacity=100;fillColor=#ffffff;strokeWidth=1.5;" parent="MTuAK9Vd22_HiNju8fyP-88" vertex="1">
          <mxGeometry width="15" height="120" as="geometry" />
        </mxCell>
        <mxCell id="MTuAK9Vd22_HiNju8fyP-90" value="Uses Google &quot;gemini-embedding-001&quot; model" style="strokeColor=none;fillColor=none;whiteSpace=wrap;fontSize=14;align=left;spacing=3.8;strokeOpacity=100;fillOpacity=100;rounded=1;absoluteArcSize=1;arcSize=9;strokeWidth=1.5;" parent="MTuAK9Vd22_HiNju8fyP-88" vertex="1">
          <mxGeometry x="15" width="195" height="120" as="geometry" />
        </mxCell>
        <mxCell id="MTuAK9Vd22_HiNju8fyP-91" value="" style="html=1;jettySize=18;whiteSpace=wrap;fontSize=13;strokeColor=#3a414a;strokeOpacity=100;strokeWidth=1.5;rounded=1;arcSize=12;edgeStyle=orthogonalEdgeStyle;startArrow=none;endArrow=block;endFill=1;entryX=-0.005;entryY=0.5;entryPerimeter=0;lucidId=3B-spvMqORh8;exitX=1;exitY=0.5;exitDx=0;exitDy=0;exitPerimeter=0;" parent="1" source="MTuAK9Vd22_HiNju8fyP-151" target="MTuAK9Vd22_HiNju8fyP-85" edge="1">
          <mxGeometry width="100" height="100" relative="1" as="geometry">
            <Array as="points">
              <mxPoint x="178" y="91" />
            </Array>
            <mxPoint x="-360" y="190" as="sourcePoint" />
          </mxGeometry>
        </mxCell>
        <mxCell id="MTuAK9Vd22_HiNju8fyP-93" value="&lt;div style=&quot;display: flex; justify-content: center; text-align: center; align-items: baseline; font-size: 0; line-height: 1.25;margin-top: -2px;&quot;&gt;&lt;span&gt;&lt;span style=&quot;font-size: 16.7px; color: rgb(0, 0, 0); font-weight: bold;&quot;&gt;Save in vector store&lt;br&gt;&lt;/span&gt;&lt;/span&gt;&lt;/div&gt;&lt;div style=&quot;display: flex; justify-content: center; text-align: center; align-items: baseline; line-height: 1.25; margin-top: -2px;&quot;&gt;&lt;font style=&quot;font-size: 14px;&quot;&gt;(Save embedding in vector store per session id in local directory)&lt;/font&gt;&lt;/div&gt;" style="html=1;overflow=block;blockSpacing=1;whiteSpace=wrap;shape=cylinder3;direction=south;size=10;anchorPointDirection=0;boundedLbl=1;fontSize=13;spacing=3.8;strokeOpacity=100;fillOpacity=100;rounded=1;absoluteArcSize=1;arcSize=9;fillColor=#ffffff;strokeWidth=1.5;lucidId=BF-sYgZuf6W6;" parent="1" vertex="1">
          <mxGeometry x="674" y="360" width="248" height="110" as="geometry" />
        </mxCell>
        <mxCell id="MTuAK9Vd22_HiNju8fyP-94" value="Create unique session id" style="html=1;overflow=block;blockSpacing=1;whiteSpace=wrap;fontSize=16.7;fontStyle=1;spacing=9;strokeOpacity=100;fillOpacity=100;rounded=1;absoluteArcSize=1;arcSize=9;fillColor=#ffffff;strokeWidth=1.5;lucidId=7g~sERHaxTME;" parent="1" vertex="1">
          <mxGeometry x="454" y="220" width="180" height="62" as="geometry" />
        </mxCell>
        <mxCell id="MTuAK9Vd22_HiNju8fyP-95" value="&lt;div style=&quot;display: flex; justify-content: center; text-align: center; align-items: baseline; font-size: 0; line-height: 1.25;margin-top: -2px;&quot;&gt;&lt;span&gt;&lt;span style=&quot;font-size:16.7px;font-weight: bold;&quot;&gt;Create text chunks&lt;/span&gt;&lt;span style=&quot;font-size:13px;&quot;&gt;&lt;br&gt;&lt;/span&gt;&lt;/span&gt;&lt;/div&gt;&lt;div style=&quot;display: flex; justify-content: center; text-align: center; align-items: baseline; line-height: 1.25; margin-top: -2px;&quot;&gt;&lt;font style=&quot;font-size: 14px;&quot;&gt;(Breaks into smaller text string chunks)&lt;/font&gt;&lt;/div&gt;" style="html=1;overflow=block;blockSpacing=1;whiteSpace=wrap;fontSize=13;spacing=9;strokeOpacity=100;fillOpacity=100;rounded=1;absoluteArcSize=1;arcSize=9;fillColor=#ffffff;strokeWidth=1.5;lucidId=VHqtX~5.i4.o;" parent="1" vertex="1">
          <mxGeometry x="795" y="39" width="180" height="102" as="geometry" />
        </mxCell>
        <mxCell id="MTuAK9Vd22_HiNju8fyP-96" value="" style="html=1;jettySize=18;whiteSpace=wrap;fontSize=13;strokeColor=#3a414a;strokeOpacity=100;strokeWidth=1.5;rounded=1;arcSize=12;edgeStyle=orthogonalEdgeStyle;startArrow=none;endArrow=block;endFill=1;exitX=1;exitY=0.5;exitPerimeter=0;entryX=0;entryY=0.5;entryPerimeter=0;lucidId=uIqtAKt86w4r;" parent="1" source="MTuAK9Vd22_HiNju8fyP-86" target="MTuAK9Vd22_HiNju8fyP-95" edge="1">
          <mxGeometry width="100" height="100" relative="1" as="geometry">
            <Array as="points" />
          </mxGeometry>
        </mxCell>
        <mxCell id="MTuAK9Vd22_HiNju8fyP-97" value="&lt;div style=&quot;display: flex; justify-content: center; text-align: center; align-items: baseline; font-size: 0; line-height: 1.25;margin-top: -2px;&quot;&gt;&lt;span&gt;&lt;span style=&quot;font-size:16.7px;font-weight: bold;&quot;&gt;Retrieve embedding&lt;/span&gt;&lt;span style=&quot;font-size:13px;&quot;&gt;&lt;br&gt;&lt;/span&gt;&lt;/span&gt;&lt;/div&gt;&lt;div style=&quot;display: flex; justify-content: center; text-align: center; align-items: baseline; line-height: 1.25; margin-top: -2px;&quot;&gt;&lt;font style=&quot;font-size: 14px;&quot;&gt;(Text chunks converted into numerical vectors)&lt;/font&gt;&lt;/div&gt;" style="html=1;overflow=block;blockSpacing=1;whiteSpace=wrap;fontSize=13;spacing=9;strokeOpacity=100;fillOpacity=100;rounded=1;absoluteArcSize=1;arcSize=9;fillColor=#ffffff;strokeWidth=1.5;lucidId=IJqtZWvHZc2W;" parent="1" vertex="1">
          <mxGeometry x="702" y="180" width="192" height="102" as="geometry" />
        </mxCell>
        <mxCell id="MTuAK9Vd22_HiNju8fyP-98" value="Create embedding" style="html=1;overflow=block;blockSpacing=1;whiteSpace=wrap;shape=process;fontSize=16.7;fontStyle=1;spacing=3.8;strokeOpacity=100;rounded=1;absoluteArcSize=1;arcSize=9;fillColor=default;strokeWidth=NaN;lucidId=pKqtHE6TJ6OQ;fillStyle=auto;" parent="1" vertex="1">
          <mxGeometry x="1095" y="39" width="162" height="102" as="geometry" />
        </mxCell>
        <mxCell id="MTuAK9Vd22_HiNju8fyP-99" value="" style="html=1;jettySize=18;whiteSpace=wrap;fontSize=13;strokeColor=#3a414a;strokeOpacity=100;strokeWidth=1.5;rounded=1;arcSize=12;edgeStyle=orthogonalEdgeStyle;startArrow=none;endArrow=block;endFill=1;exitX=1.004;exitY=0.5;exitPerimeter=0;entryX=-0.005;entryY=0.5;entryPerimeter=0;lucidId=DYqtCyJFhc4O;" parent="1" source="MTuAK9Vd22_HiNju8fyP-95" target="MTuAK9Vd22_HiNju8fyP-98" edge="1">
          <mxGeometry width="100" height="100" relative="1" as="geometry">
            <Array as="points" />
          </mxGeometry>
        </mxCell>
        <mxCell id="MTuAK9Vd22_HiNju8fyP-100" value="" style="html=1;jettySize=18;whiteSpace=wrap;fontSize=13;strokeColor=#3a414a;strokeOpacity=100;strokeWidth=1.5;rounded=1;arcSize=12;edgeStyle=orthogonalEdgeStyle;startArrow=none;endArrow=block;endFill=1;exitX=0.5;exitY=1.007;exitPerimeter=0;entryX=1.004;entryY=0.5;entryPerimeter=0;lucidId=NYqtK-utqcIB;" parent="1" source="MTuAK9Vd22_HiNju8fyP-98" target="MTuAK9Vd22_HiNju8fyP-97" edge="1">
          <mxGeometry width="100" height="100" relative="1" as="geometry">
            <Array as="points" />
          </mxGeometry>
        </mxCell>
        <mxCell id="MTuAK9Vd22_HiNju8fyP-101" value="" style="html=1;jettySize=18;whiteSpace=wrap;fontSize=13;strokeColor=#3a414a;strokeOpacity=100;strokeWidth=1.5;rounded=1;arcSize=12;edgeStyle=orthogonalEdgeStyle;startArrow=block;startFill=1;endArrow=none;exitX=0.5;exitY=-0.012;exitPerimeter=0;lucidId=O0qtsQAAUS5x;" parent="1" source="MTuAK9Vd22_HiNju8fyP-94" edge="1">
          <mxGeometry width="100" height="100" relative="1" as="geometry">
            <Array as="points">
              <mxPoint x="544" y="180" />
              <mxPoint x="317" y="180" />
            </Array>
            <mxPoint x="317" y="90" as="targetPoint" />
          </mxGeometry>
        </mxCell>
        <mxCell id="MTuAK9Vd22_HiNju8fyP-102" value="" style="html=1;jettySize=18;whiteSpace=wrap;fontSize=13;strokeColor=#3a414a;strokeOpacity=100;strokeWidth=1.5;rounded=1;arcSize=12;edgeStyle=orthogonalEdgeStyle;startArrow=none;endArrow=block;endFill=1;exitX=0.5;exitY=1.012;exitPerimeter=0;entryX=0.361;entryY=-0.007;entryPerimeter=0;lucidId=W3qtW7Ulm.HG;" parent="1" source="MTuAK9Vd22_HiNju8fyP-94" target="MTuAK9Vd22_HiNju8fyP-93" edge="1">
          <mxGeometry width="100" height="100" relative="1" as="geometry">
            <Array as="points" />
          </mxGeometry>
        </mxCell>
        <mxCell id="MTuAK9Vd22_HiNju8fyP-103" value="" style="html=1;jettySize=18;whiteSpace=wrap;fontSize=13;strokeColor=#3a414a;strokeOpacity=100;strokeWidth=1.5;rounded=1;arcSize=12;edgeStyle=orthogonalEdgeStyle;startArrow=none;endArrow=block;endFill=1;exitX=0.5;exitY=1.007;exitPerimeter=0;entryX=0.501;entryY=-0.007;entryPerimeter=0;lucidId=Z3qtyGcqjMsW;" parent="1" source="MTuAK9Vd22_HiNju8fyP-97" target="MTuAK9Vd22_HiNju8fyP-93" edge="1">
          <mxGeometry width="100" height="100" relative="1" as="geometry">
            <Array as="points" />
          </mxGeometry>
        </mxCell>
        <mxCell id="MTuAK9Vd22_HiNju8fyP-104" value="&lt;div style=&quot;display: flex; justify-content: center; text-align: center; align-items: baseline; font-size: 0; line-height: 1.25;margin-top: -2px;&quot;&gt;&lt;span&gt;&lt;span style=&quot;font-size: 16.7px; color: rgb(0, 0, 0); font-weight: bold;&quot;&gt;Save &lt;/span&gt;&lt;span style=&quot;font-size:16.7px;font-weight: bold;&quot;&gt;session metadata&lt;/span&gt;&lt;span style=&quot;font-size: 16.7px; color: rgb(0, 0, 0); font-weight: bold;&quot;&gt;&lt;br&gt;&lt;/span&gt;&lt;/span&gt;&lt;/div&gt;&lt;div style=&quot;display: flex; justify-content: center; text-align: center; align-items: baseline; line-height: 1.25; margin-top: -2px;&quot;&gt;&lt;font style=&quot;font-size: 14px;&quot;&gt;(Save chat history per session id in local directory)&lt;/font&gt;&lt;/div&gt;" style="html=1;overflow=block;blockSpacing=1;whiteSpace=wrap;shape=cylinder3;direction=south;size=10;anchorPointDirection=0;boundedLbl=1;fontSize=13;spacing=3.8;strokeOpacity=100;fillOpacity=100;rounded=1;absoluteArcSize=1;arcSize=9;fillColor=#ffffff;strokeWidth=1.5;lucidId=I6qtVYRplDsb;" parent="1" vertex="1">
          <mxGeometry x="386" y="359" width="248" height="110" as="geometry" />
        </mxCell>
        <mxCell id="MTuAK9Vd22_HiNju8fyP-105" value="" style="html=1;jettySize=18;whiteSpace=wrap;fontSize=13;strokeColor=#3a414a;strokeOpacity=100;strokeWidth=1.5;rounded=1;arcSize=12;edgeStyle=orthogonalEdgeStyle;startArrow=block;startFill=1;endArrow=none;exitX=0.5;exitY=0;exitPerimeter=0;entryX=0.31;entryY=1.005;entryPerimeter=0;lucidId=d-qtmLXRGlQ8;entryDx=0;entryDy=0;" parent="1" source="MTuAK9Vd22_HiNju8fyP-104" target="MTuAK9Vd22_HiNju8fyP-94" edge="1">
          <mxGeometry width="100" height="100" relative="1" as="geometry">
            <Array as="points">
              <mxPoint x="510" y="282" />
            </Array>
          </mxGeometry>
        </mxCell>
        <mxCell id="MTuAK9Vd22_HiNju8fyP-106" value="Receive chat input" style="html=1;overflow=block;blockSpacing=1;whiteSpace=wrap;fontSize=16.7;fontStyle=1;spacing=3.8;strokeOpacity=100;fillOpacity=100;rounded=1;absoluteArcSize=1;arcSize=9;fillColor=#ffffff;strokeWidth=1.5;lucidId=yjrt7ItkKVQ7;" parent="1" vertex="1">
          <mxGeometry x="558" y="555" width="191" height="67" as="geometry" />
        </mxCell>
        <mxCell id="MTuAK9Vd22_HiNju8fyP-107" value="" style="strokeColor=none;fillColor=none;whiteSpace=wrap;fontSize=13;align=left;spacing=3.8;strokeOpacity=100;fillOpacity=100;rounded=1;absoluteArcSize=1;arcSize=9;strokeWidth=1.5;html=1;" parent="1" vertex="1">
          <mxGeometry x="1267" y="528" width="210" height="120" as="geometry" />
        </mxCell>
        <mxCell id="MTuAK9Vd22_HiNju8fyP-108" value="" style="shape=curlyBracket;rounded=1;flipH=1;whiteSpace=wrap;fontSize=13.3;align=left;spacing=3.8;strokeOpacity=100;fillOpacity=100;fillColor=#ffffff;strokeWidth=1.5;" parent="MTuAK9Vd22_HiNju8fyP-107" vertex="1">
          <mxGeometry width="15" height="120" as="geometry" />
        </mxCell>
        <mxCell id="MTuAK9Vd22_HiNju8fyP-109" value="Uses Google &quot;gemini-embedding-001&quot; model" style="strokeColor=none;fillColor=none;whiteSpace=wrap;fontSize=14;align=left;spacing=3.8;strokeOpacity=100;fillOpacity=100;rounded=1;absoluteArcSize=1;arcSize=9;strokeWidth=1.5;" parent="MTuAK9Vd22_HiNju8fyP-107" vertex="1">
          <mxGeometry x="15" width="195" height="120" as="geometry" />
        </mxCell>
        <mxCell id="MTuAK9Vd22_HiNju8fyP-110" value="Create embedding" style="html=1;overflow=block;blockSpacing=1;whiteSpace=wrap;shape=process;fontSize=16.7;fontStyle=1;spacing=3.8;strokeOpacity=100;rounded=1;absoluteArcSize=1;arcSize=9;strokeWidth=NaN;lucidId=ikrtrurGUswx;fillStyle=auto;" parent="1" vertex="1">
          <mxGeometry x="1095" y="538" width="162" height="102" as="geometry" />
        </mxCell>
        <mxCell id="MTuAK9Vd22_HiNju8fyP-111" value="" style="html=1;jettySize=18;whiteSpace=wrap;fontSize=13;strokeColor=#3a414a;strokeOpacity=100;strokeWidth=1.5;rounded=1;arcSize=12;edgeStyle=orthogonalEdgeStyle;startArrow=none;endArrow=block;endFill=1;exitX=1.004;exitY=0.5;exitPerimeter=0;entryX=-0.005;entryY=0.5;entryPerimeter=0;lucidId=ykrtjce8W.g7;" parent="1" source="MTuAK9Vd22_HiNju8fyP-106" target="MTuAK9Vd22_HiNju8fyP-110" edge="1">
          <mxGeometry width="100" height="100" relative="1" as="geometry">
            <Array as="points" />
          </mxGeometry>
        </mxCell>
        <mxCell id="MTuAK9Vd22_HiNju8fyP-112" value="&lt;div style=&quot;display: flex; justify-content: center; text-align: center; align-items: baseline; font-size: 0; line-height: 1.25;margin-top: -2px;&quot;&gt;&lt;span&gt;&lt;span style=&quot;font-size:16.7px;font-weight: bold;&quot;&gt;Retrieve embedding&lt;/span&gt;&lt;span style=&quot;font-size:13px;&quot;&gt;&lt;br&gt;&lt;/span&gt;&lt;/span&gt;&lt;/div&gt;&lt;div style=&quot;display: flex; justify-content: center; text-align: center; align-items: baseline; line-height: 1.25; margin-top: -2px;&quot;&gt;&lt;font style=&quot;font-size: 14px;&quot;&gt;(Chat input converted into numerical vector)&lt;/font&gt;&lt;/div&gt;" style="html=1;overflow=block;blockSpacing=1;whiteSpace=wrap;fontSize=13;spacing=9;strokeOpacity=100;fillOpacity=100;rounded=1;absoluteArcSize=1;arcSize=9;fillColor=#ffffff;strokeWidth=1.5;lucidId=KkrtmfTj1s.1;" parent="1" vertex="1">
          <mxGeometry x="702" y="762" width="192" height="102" as="geometry" />
        </mxCell>
        <mxCell id="MTuAK9Vd22_HiNju8fyP-113" value="" style="html=1;jettySize=18;whiteSpace=wrap;fontSize=13;strokeColor=#3a414a;strokeOpacity=100;strokeWidth=1.5;rounded=1;arcSize=12;edgeStyle=orthogonalEdgeStyle;startArrow=none;endArrow=block;endFill=1;exitX=0.5;exitY=1.007;exitPerimeter=0;entryX=1.004;entryY=0.5;entryPerimeter=0;lucidId=3krt3cfeUGYR;" parent="1" source="MTuAK9Vd22_HiNju8fyP-110" target="MTuAK9Vd22_HiNju8fyP-112" edge="1">
          <mxGeometry width="100" height="100" relative="1" as="geometry">
            <Array as="points" />
          </mxGeometry>
        </mxCell>
        <mxCell id="MTuAK9Vd22_HiNju8fyP-114" value="" style="html=1;jettySize=18;whiteSpace=wrap;fontSize=13;strokeColor=#3a414a;strokeOpacity=100;strokeWidth=1.5;rounded=1;arcSize=12;edgeStyle=orthogonalEdgeStyle;startArrow=none;endArrow=block;endFill=1;entryX=-0.003;entryY=0.53;entryPerimeter=0;lucidId=emrtvl.QWRXs;" parent="1" source="MTuAK9Vd22_HiNju8fyP-153" target="MTuAK9Vd22_HiNju8fyP-106" edge="1">
          <mxGeometry width="100" height="100" relative="1" as="geometry">
            <Array as="points" />
            <mxPoint x="190" y="591" as="sourcePoint" />
          </mxGeometry>
        </mxCell>
        <mxCell id="MTuAK9Vd22_HiNju8fyP-116" value="&lt;div style=&quot;display: flex; justify-content: center; text-align: center; align-items: baseline; font-size: 0; line-height: 1.25;margin-top: -2px;&quot;&gt;&lt;span&gt;&lt;span style=&quot;font-size:16.7px;font-weight: bold;&quot;&gt;Load vector store&lt;/span&gt;&lt;span style=&quot;font-size:13px;&quot;&gt;&lt;br&gt;&lt;/span&gt;&lt;/span&gt;&lt;/div&gt;&lt;div style=&quot;display: flex; justify-content: center; text-align: center; align-items: baseline; line-height: 1.25; margin-top: -2px;&quot;&gt;&lt;font style=&quot;font-size: 14px;&quot;&gt;(Loads embedding from local vector store)&lt;/font&gt;&lt;/div&gt;" style="html=1;overflow=block;blockSpacing=1;whiteSpace=wrap;fontSize=13;spacing=9;strokeOpacity=100;fillOpacity=100;rounded=1;absoluteArcSize=1;arcSize=9;fillColor=#ffffff;strokeWidth=1.5;lucidId=cnrtrImb_sHL;" parent="1" vertex="1">
          <mxGeometry x="702" y="639" width="192" height="102" as="geometry" />
        </mxCell>
        <mxCell id="MTuAK9Vd22_HiNju8fyP-117" value="&lt;div style=&quot;display: flex; justify-content: center; text-align: center; align-items: baseline; font-size: 0; line-height: 1.25;margin-top: -2px;&quot;&gt;&lt;span&gt;&lt;span style=&quot;font-size:16.7px;font-weight: bold;&quot;&gt;Perform similarity search&lt;/span&gt;&lt;span style=&quot;font-size:13px;&quot;&gt;&lt;br&gt;&lt;/span&gt;&lt;/span&gt;&lt;/div&gt;&lt;div style=&quot;display: flex; justify-content: center; text-align: center; align-items: baseline; line-height: 1.25; margin-top: -2px;&quot;&gt;&lt;font style=&quot;font-size: 14px;&quot;&gt;(Isolates relevant embeddings based on chat input)&lt;/font&gt;&lt;/div&gt;" style="html=1;overflow=block;blockSpacing=1;whiteSpace=wrap;fontSize=13;spacing=9;strokeOpacity=100;fillOpacity=100;rounded=1;absoluteArcSize=1;arcSize=9;fillColor=#ffffff;strokeWidth=1.5;lucidId=-nrtwOc0FdDu;" parent="1" vertex="1">
          <mxGeometry x="600" y="915" width="239" height="102" as="geometry" />
        </mxCell>
        <mxCell id="MTuAK9Vd22_HiNju8fyP-118" value="" style="html=1;jettySize=18;whiteSpace=wrap;fontSize=13;strokeColor=#3a414a;strokeOpacity=100;strokeWidth=1.5;rounded=1;arcSize=12;edgeStyle=orthogonalEdgeStyle;startArrow=none;endArrow=block;endFill=1;exitX=-0.004;exitY=0.5;exitPerimeter=0;entryX=0.188;entryY=-0.007;entryPerimeter=0;lucidId=NprtpBUa_N9a;" parent="1" source="MTuAK9Vd22_HiNju8fyP-116" target="MTuAK9Vd22_HiNju8fyP-117" edge="1">
          <mxGeometry width="100" height="100" relative="1" as="geometry">
            <Array as="points" />
          </mxGeometry>
        </mxCell>
        <mxCell id="MTuAK9Vd22_HiNju8fyP-119" value="" style="html=1;jettySize=18;whiteSpace=wrap;fontSize=13;strokeColor=#3a414a;strokeOpacity=100;strokeWidth=1.5;rounded=1;arcSize=12;edgeStyle=orthogonalEdgeStyle;startArrow=none;endArrow=block;endFill=1;exitX=0.5;exitY=1.007;exitPerimeter=0;entryX=0.829;entryY=-0.007;entryPerimeter=0;lucidId=TprtErMB3ibM;" parent="1" source="MTuAK9Vd22_HiNju8fyP-112" target="MTuAK9Vd22_HiNju8fyP-117" edge="1">
          <mxGeometry width="100" height="100" relative="1" as="geometry">
            <Array as="points" />
          </mxGeometry>
        </mxCell>
        <mxCell id="MTuAK9Vd22_HiNju8fyP-120" value="" style="html=1;jettySize=18;whiteSpace=wrap;fontSize=13;strokeColor=#3a414a;strokeOpacity=100;strokeWidth=1.5;rounded=1;arcSize=12;edgeStyle=orthogonalEdgeStyle;startArrow=none;endArrow=block;endFill=1;exitX=0.5;exitY=1;exitPerimeter=0;entryX=0.5;entryY=0;entryPerimeter=0;lucidId=7prtnS5iFQ4w;" parent="1" source="MTuAK9Vd22_HiNju8fyP-93" target="MTuAK9Vd22_HiNju8fyP-116" edge="1">
          <mxGeometry width="100" height="100" relative="1" as="geometry">
            <Array as="points" />
          </mxGeometry>
        </mxCell>
        <mxCell id="MTuAK9Vd22_HiNju8fyP-121" value="Chat history &lt;br&gt;exists in same &lt;br&gt;session" style="html=1;overflow=block;blockSpacing=1;whiteSpace=wrap;rhombus;fontSize=16.7;spacing=3.8;strokeOpacity=100;rounded=1;absoluteArcSize=1;arcSize=9;strokeWidth=NaN;lucidId=xvrtIGFKej5I;" parent="1" vertex="1">
          <mxGeometry x="420" y="690" width="179" height="165" as="geometry" />
        </mxCell>
        <mxCell id="MTuAK9Vd22_HiNju8fyP-122" value="" style="html=1;jettySize=18;whiteSpace=wrap;fontSize=16.7;fontColor=#333333;fontStyle=1;strokeColor=#3a414a;strokeOpacity=100;strokeWidth=0.8;rounded=1;arcSize=12;edgeStyle=orthogonalEdgeStyle;startArrow=none;endArrow=block;endFill=1;exitX=0.759;exitY=0.748;exitPerimeter=0;entryX=0.748;entryY=-0.008;entryPerimeter=0;lucidId=iwrtMaswNhjh;" parent="1" source="MTuAK9Vd22_HiNju8fyP-121" target="MTuAK9Vd22_HiNju8fyP-124" edge="1">
          <mxGeometry width="100" height="100" relative="1" as="geometry">
            <Array as="points" />
          </mxGeometry>
        </mxCell>
        <mxCell id="MTuAK9Vd22_HiNju8fyP-123" value="Yes" style="text;html=1;resizable=0;labelBackgroundColor=default;align=center;verticalAlign=middle;fontStyle=1;fontColor=#333333;fontSize=16.7;" parent="MTuAK9Vd22_HiNju8fyP-122" vertex="1">
          <mxGeometry relative="1" as="geometry" />
        </mxCell>
        <mxCell id="MTuAK9Vd22_HiNju8fyP-124" value="Store in memory buffer" style="html=1;overflow=block;blockSpacing=1;whiteSpace=wrap;fontSize=16.7;fontStyle=1;spacing=9;strokeOpacity=100;fillOpacity=100;rounded=1;absoluteArcSize=1;arcSize=9;fillColor=#ffffff;strokeWidth=1.5;lucidId=lwrtckZ9W92y;" parent="1" vertex="1">
          <mxGeometry x="486" y="960" width="93" height="90" as="geometry" />
        </mxCell>
        <mxCell id="MTuAK9Vd22_HiNju8fyP-125" value="Isolated vector embeddings" style="html=1;overflow=block;blockSpacing=1;whiteSpace=wrap;fontSize=16.7;fontStyle=1;spacing=9;strokeOpacity=100;fillOpacity=100;rounded=1;absoluteArcSize=1;arcSize=9;fillColor=#ffffff;strokeWidth=1.5;lucidId=7yrtR2Ea31MI;" parent="1" vertex="1">
          <mxGeometry x="600" y="1071" width="239" height="69" as="geometry" />
        </mxCell>
        <mxCell id="MTuAK9Vd22_HiNju8fyP-126" value="" style="html=1;jettySize=18;whiteSpace=wrap;fontSize=13;strokeColor=#3a414a;strokeOpacity=100;strokeWidth=1.5;rounded=1;arcSize=12;edgeStyle=orthogonalEdgeStyle;startArrow=none;endArrow=block;endFill=1;exitX=0.5;exitY=1;exitPerimeter=0;entryX=0.5;entryY=0;entryPerimeter=0;lucidId=xzrtkKbQkCMB;" parent="1" source="MTuAK9Vd22_HiNju8fyP-117" target="MTuAK9Vd22_HiNju8fyP-125" edge="1">
          <mxGeometry width="100" height="100" relative="1" as="geometry">
            <Array as="points" />
          </mxGeometry>
        </mxCell>
        <mxCell id="MTuAK9Vd22_HiNju8fyP-127" value="Prompt" style="html=1;overflow=block;blockSpacing=1;whiteSpace=wrap;fontSize=16.7;fontStyle=1;spacing=9;strokeOpacity=100;fillOpacity=100;rounded=1;absoluteArcSize=1;arcSize=9;fillColor=#ffffff;strokeWidth=1.5;lucidId=QzrtJG2R_.OQ;" parent="1" vertex="1">
          <mxGeometry x="600" y="1155" width="239" height="69" as="geometry" />
        </mxCell>
        <mxCell id="MTuAK9Vd22_HiNju8fyP-128" value="Chat history" style="html=1;overflow=block;blockSpacing=1;whiteSpace=wrap;fontSize=16.7;fontStyle=1;spacing=9;strokeOpacity=100;fillOpacity=100;rounded=1;absoluteArcSize=1;arcSize=9;fillColor=#ffffff;strokeWidth=1.5;lucidId=dArt07Q7.hOd;" parent="1" vertex="1">
          <mxGeometry x="600" y="1239" width="239" height="69" as="geometry" />
        </mxCell>
        <mxCell id="MTuAK9Vd22_HiNju8fyP-129" value="" style="html=1;jettySize=18;whiteSpace=wrap;fontSize=16.7;fontColor=#333333;fontStyle=1;strokeColor=#3a414a;strokeOpacity=100;strokeWidth=0.8;rounded=1;arcSize=12;edgeStyle=orthogonalEdgeStyle;startArrow=none;endArrow=block;endFill=1;exitX=0.231;exitY=0.737;exitPerimeter=0;entryX=0.654;entryY=-0.008;entryPerimeter=0;lucidId=2DrtNqQ~SslT;" parent="1" source="MTuAK9Vd22_HiNju8fyP-121" target="MTuAK9Vd22_HiNju8fyP-145" edge="1">
          <mxGeometry width="100" height="100" relative="1" as="geometry">
            <Array as="points" />
          </mxGeometry>
        </mxCell>
        <mxCell id="MTuAK9Vd22_HiNju8fyP-130" value="No" style="text;html=1;resizable=0;labelBackgroundColor=default;align=center;verticalAlign=middle;fontStyle=1;fontColor=#333333;fontSize=16.7;" parent="MTuAK9Vd22_HiNju8fyP-129" vertex="1">
          <mxGeometry relative="1" as="geometry" />
        </mxCell>
        <mxCell id="MTuAK9Vd22_HiNju8fyP-131" value="" style="html=1;jettySize=18;whiteSpace=wrap;fontSize=13;strokeColor=#3a414a;strokeOpacity=100;strokeWidth=1.5;rounded=1;arcSize=12;edgeStyle=orthogonalEdgeStyle;startArrow=none;endArrow=block;endFill=1;exitX=0.5;exitY=1.007;exitPerimeter=0;entryX=0.5;entryY=0.006;entryPerimeter=0;lucidId=dFrt0E.x2p~u;" parent="1" source="MTuAK9Vd22_HiNju8fyP-104" target="MTuAK9Vd22_HiNju8fyP-121" edge="1">
          <mxGeometry width="100" height="100" relative="1" as="geometry">
            <Array as="points" />
          </mxGeometry>
        </mxCell>
        <mxCell id="MTuAK9Vd22_HiNju8fyP-132" value="" style="html=1;jettySize=18;whiteSpace=wrap;fontSize=13;strokeColor=#3a414a;strokeOpacity=100;strokeWidth=1.5;rounded=1;arcSize=12;edgeStyle=orthogonalEdgeStyle;startArrow=none;endArrow=block;endFill=1;exitX=0.5;exitY=1.008;exitPerimeter=0;entryX=-0.003;entryY=0.716;entryPerimeter=0;lucidId=9GrtcBrlw-.e;" parent="1" source="MTuAK9Vd22_HiNju8fyP-145" target="MTuAK9Vd22_HiNju8fyP-128" edge="1">
          <mxGeometry width="100" height="100" relative="1" as="geometry">
            <Array as="points" />
          </mxGeometry>
        </mxCell>
        <mxCell id="MTuAK9Vd22_HiNju8fyP-133" value="" style="html=1;jettySize=18;whiteSpace=wrap;fontSize=13;strokeColor=#3a414a;strokeOpacity=100;strokeWidth=1.5;rounded=1;arcSize=12;edgeStyle=orthogonalEdgeStyle;startArrow=none;endArrow=block;endFill=1;exitX=0.657;exitY=1.008;exitPerimeter=0;entryX=-0.003;entryY=0.303;entryPerimeter=0;lucidId=~GrtyXUvZD6h;" parent="1" source="MTuAK9Vd22_HiNju8fyP-124" target="MTuAK9Vd22_HiNju8fyP-128" edge="1">
          <mxGeometry width="100" height="100" relative="1" as="geometry">
            <Array as="points" />
          </mxGeometry>
        </mxCell>
        <mxCell id="MTuAK9Vd22_HiNju8fyP-134" value="" style="html=1;jettySize=18;whiteSpace=wrap;fontSize=13;strokeColor=#3a414a;strokeOpacity=100;strokeWidth=1.5;rounded=1;arcSize=12;edgeStyle=orthogonalEdgeStyle;startArrow=none;endArrow=block;endFill=1;exitX=-0.004;exitY=0.324;exitPerimeter=0;entryX=0.354;entryY=1.008;entryPerimeter=0;lucidId=2KrtTGgcWSJl;" parent="1" source="MTuAK9Vd22_HiNju8fyP-142" target="MTuAK9Vd22_HiNju8fyP-124" edge="1">
          <mxGeometry width="100" height="100" relative="1" as="geometry">
            <Array as="points" />
          </mxGeometry>
        </mxCell>
        <mxCell id="MTuAK9Vd22_HiNju8fyP-135" value="Process query" style="html=1;overflow=block;blockSpacing=1;whiteSpace=wrap;shape=process;fontSize=16.7;fontStyle=1;spacing=3.8;strokeOpacity=100;rounded=1;absoluteArcSize=1;arcSize=9;strokeWidth=NaN;lucidId=rHrtsGeUYC5f;" parent="1" vertex="1">
          <mxGeometry x="1095" y="1139" width="162" height="102" as="geometry" />
        </mxCell>
        <mxCell id="MTuAK9Vd22_HiNju8fyP-136" value="" style="strokeColor=none;fillColor=none;whiteSpace=wrap;fontSize=13.3;align=left;spacing=3.8;strokeOpacity=100;fillOpacity=100;rounded=1;absoluteArcSize=1;arcSize=9;strokeWidth=1.5;html=1;" parent="1" vertex="1">
          <mxGeometry x="1267" y="1130" width="188" height="120" as="geometry" />
        </mxCell>
        <mxCell id="MTuAK9Vd22_HiNju8fyP-137" value="" style="shape=curlyBracket;rounded=1;flipH=1;whiteSpace=wrap;fontSize=13.3;align=left;spacing=3.8;strokeOpacity=100;fillOpacity=100;fillColor=#ffffff;strokeWidth=1.5;" parent="MTuAK9Vd22_HiNju8fyP-136" vertex="1">
          <mxGeometry width="15" height="120" as="geometry" />
        </mxCell>
        <mxCell id="MTuAK9Vd22_HiNju8fyP-138" value="Uses Google &quot;gemini-2.5-flash&quot; model" style="strokeColor=none;fillColor=none;whiteSpace=wrap;fontSize=14;align=left;spacing=3.8;strokeOpacity=100;fillOpacity=100;rounded=1;absoluteArcSize=1;arcSize=9;strokeWidth=1.5;" parent="MTuAK9Vd22_HiNju8fyP-136" vertex="1">
          <mxGeometry x="15" width="173" height="120" as="geometry" />
        </mxCell>
        <mxCell id="MTuAK9Vd22_HiNju8fyP-139" value="" style="html=1;jettySize=18;whiteSpace=wrap;fontSize=13;strokeColor=#3a414a;strokeOpacity=100;strokeWidth=1.5;rounded=1;arcSize=12;edgeStyle=orthogonalEdgeStyle;startArrow=none;endArrow=block;endFill=1;exitX=1.003;exitY=0.5;exitPerimeter=0;entryX=-0.005;entryY=0.5;entryPerimeter=0;lucidId=fIrtZKjqw77b;" parent="1" source="MTuAK9Vd22_HiNju8fyP-127" target="MTuAK9Vd22_HiNju8fyP-135" edge="1">
          <mxGeometry width="100" height="100" relative="1" as="geometry">
            <Array as="points" />
          </mxGeometry>
        </mxCell>
        <mxCell id="MTuAK9Vd22_HiNju8fyP-140" value="" style="html=1;jettySize=18;whiteSpace=wrap;fontSize=13;strokeColor=#3a414a;strokeOpacity=100;strokeWidth=1.5;rounded=1;arcSize=12;edgeStyle=orthogonalEdgeStyle;startArrow=none;endArrow=block;endFill=1;exitX=1.003;exitY=0.5;exitPerimeter=0;entryX=-0.005;entryY=0.279;entryPerimeter=0;lucidId=nIrtsBv-QNtQ;" parent="1" source="MTuAK9Vd22_HiNju8fyP-125" target="MTuAK9Vd22_HiNju8fyP-135" edge="1">
          <mxGeometry width="100" height="100" relative="1" as="geometry">
            <Array as="points">
              <mxPoint x="950" y="1105" />
              <mxPoint x="950" y="1168" />
            </Array>
          </mxGeometry>
        </mxCell>
        <mxCell id="MTuAK9Vd22_HiNju8fyP-141" value="" style="html=1;jettySize=18;whiteSpace=wrap;fontSize=13;strokeColor=#3a414a;strokeOpacity=100;strokeWidth=1.5;rounded=1;arcSize=12;edgeStyle=orthogonalEdgeStyle;startArrow=none;endArrow=block;endFill=1;exitX=1.003;exitY=0.5;exitPerimeter=0;entryX=-0.005;entryY=0.721;entryPerimeter=0;lucidId=yIrt5Kg1jJp~;" parent="1" source="MTuAK9Vd22_HiNju8fyP-128" target="MTuAK9Vd22_HiNju8fyP-135" edge="1">
          <mxGeometry width="100" height="100" relative="1" as="geometry">
            <Array as="points">
              <mxPoint x="950" y="1273" />
              <mxPoint x="950" y="1213" />
            </Array>
          </mxGeometry>
        </mxCell>
        <mxCell id="MTuAK9Vd22_HiNju8fyP-142" value="&lt;div style=&quot;display: flex; justify-content: center; text-align: center; align-items: baseline; font-size: 0; line-height: 1.25;margin-top: -2px;&quot;&gt;&lt;span&gt;&lt;span style=&quot;font-size:16.7px;font-weight: bold;&quot;&gt;Retrieve response&lt;/span&gt;&lt;span style=&quot;font-size:13px;&quot;&gt;&lt;br&gt;&lt;/span&gt;&lt;/span&gt;&lt;/div&gt;&lt;div style=&quot;display: flex; justify-content: center; text-align: center; align-items: baseline; line-height: 1.25; margin-top: -2px;&quot;&gt;&lt;font style=&quot;font-size: 14px;&quot;&gt;(Response from LLM based on relevant embedding, prompt, chat hostory)&lt;/font&gt;&lt;/div&gt;" style="html=1;overflow=block;blockSpacing=1;whiteSpace=wrap;fontSize=13;spacing=9;strokeOpacity=100;fillOpacity=100;rounded=1;absoluteArcSize=1;arcSize=9;fillColor=#ffffff;strokeWidth=1.5;lucidId=wJrtr~7HcgM.;" parent="1" vertex="1">
          <mxGeometry x="600" y="1350" width="240" height="102" as="geometry" />
        </mxCell>
        <mxCell id="MTuAK9Vd22_HiNju8fyP-143" value="" style="html=1;jettySize=18;whiteSpace=wrap;fontSize=13;strokeColor=#3a414a;strokeOpacity=100;strokeWidth=1.5;rounded=1;arcSize=12;edgeStyle=orthogonalEdgeStyle;startArrow=none;endArrow=block;endFill=1;exitX=0.5;exitY=1.007;exitPerimeter=0;entryX=1.004;entryY=0.5;entryPerimeter=0;lucidId=BKrtuuAy.Gyw;" parent="1" source="MTuAK9Vd22_HiNju8fyP-135" target="MTuAK9Vd22_HiNju8fyP-142" edge="1">
          <mxGeometry width="100" height="100" relative="1" as="geometry">
            <Array as="points" />
          </mxGeometry>
        </mxCell>
        <mxCell id="MTuAK9Vd22_HiNju8fyP-144" value="" style="html=1;jettySize=18;whiteSpace=wrap;fontSize=13;strokeColor=#3a414a;strokeOpacity=100;strokeWidth=1.5;rounded=1;arcSize=12;edgeStyle=orthogonalEdgeStyle;startArrow=none;endArrow=block;endFill=1;exitX=-0.004;exitY=0.707;exitPerimeter=0;entryX=-0.003;entryY=0.5;entryPerimeter=0;lucidId=fLrtmsGGcR1D;" parent="1" source="MTuAK9Vd22_HiNju8fyP-142" target="MTuAK9Vd22_HiNju8fyP-104" edge="1">
          <mxGeometry width="100" height="100" relative="1" as="geometry">
            <Array as="points">
              <mxPoint x="350" y="1422" />
              <mxPoint x="350" y="414" />
            </Array>
          </mxGeometry>
        </mxCell>
        <mxCell id="MTuAK9Vd22_HiNju8fyP-145" value="New memory buffer" style="html=1;overflow=block;blockSpacing=1;whiteSpace=wrap;fontSize=16.7;fontStyle=1;spacing=9;strokeOpacity=100;fillOpacity=100;rounded=1;absoluteArcSize=1;arcSize=9;fillColor=#ffffff;strokeWidth=1.5;lucidId=pGrt~t~e7oNZ;" parent="1" vertex="1">
          <mxGeometry x="405" y="1110" width="86" height="90" as="geometry" />
        </mxCell>
        <mxCell id="MTuAK9Vd22_HiNju8fyP-146" value="Format response" style="html=1;overflow=block;blockSpacing=1;whiteSpace=wrap;fontSize=16.7;fontStyle=1;spacing=9;strokeOpacity=100;fillOpacity=100;rounded=1;absoluteArcSize=1;arcSize=9;fillColor=#ffffff;strokeWidth=1.5;lucidId=dPrtwK2Wrthe;" parent="1" vertex="1">
          <mxGeometry x="623" y="1500" width="192" height="69" as="geometry" />
        </mxCell>
        <mxCell id="MTuAK9Vd22_HiNju8fyP-147" value="" style="html=1;jettySize=18;whiteSpace=wrap;fontSize=13;strokeColor=#3a414a;strokeOpacity=100;strokeWidth=1.5;rounded=1;arcSize=12;edgeStyle=orthogonalEdgeStyle;startArrow=none;endArrow=block;endFill=1;exitX=0.5;exitY=1.007;exitPerimeter=0;entryX=0.5;entryY=-0.011;entryPerimeter=0;lucidId=sPrt5PJK1ZVv;" parent="1" source="MTuAK9Vd22_HiNju8fyP-142" target="MTuAK9Vd22_HiNju8fyP-146" edge="1">
          <mxGeometry width="100" height="100" relative="1" as="geometry">
            <Array as="points" />
          </mxGeometry>
        </mxCell>
        <mxCell id="MTuAK9Vd22_HiNju8fyP-148" value="" style="html=1;jettySize=18;whiteSpace=wrap;fontSize=13;strokeColor=#3a414a;strokeOpacity=100;strokeWidth=1.5;rounded=1;arcSize=12;edgeStyle=orthogonalEdgeStyle;startArrow=none;endArrow=block;endFill=1;exitX=-0.004;exitY=0.5;exitPerimeter=0;entryX=1.004;entryY=0.5;entryPerimeter=0;lucidId=DVrtPx6X6EQb;" parent="1" source="MTuAK9Vd22_HiNju8fyP-146" edge="1">
          <mxGeometry width="100" height="100" relative="1" as="geometry">
            <Array as="points" />
            <mxPoint x="177.76800000000048" y="1534.5" as="targetPoint" />
          </mxGeometry>
        </mxCell>
        <mxCell id="MTuAK9Vd22_HiNju8fyP-150" value="&lt;span style=&quot;font-size: 17px; font-weight: 700;&quot;&gt;Final &lt;br&gt;response&lt;/span&gt;" style="strokeWidth=1.5;html=1;shape=mxgraph.flowchart.terminator;whiteSpace=wrap;" parent="1" vertex="1">
          <mxGeometry x="10" y="1497.75" width="168" height="73.5" as="geometry" />
        </mxCell>
        <mxCell id="MTuAK9Vd22_HiNju8fyP-151" value="&lt;span style=&quot;font-size: 17px; font-weight: 700;&quot;&gt;Upload&lt;br&gt;documents&lt;/span&gt;" style="strokeWidth=1.5;html=1;shape=mxgraph.flowchart.terminator;whiteSpace=wrap;" parent="1" vertex="1">
          <mxGeometry x="13.5" y="53.25" width="168" height="73.5" as="geometry" />
        </mxCell>
        <mxCell id="MTuAK9Vd22_HiNju8fyP-153" value="&lt;span style=&quot;font-size: 17px;&quot;&gt;&lt;b&gt;Input chat&lt;br&gt;query&lt;/b&gt;&lt;/span&gt;" style="strokeWidth=1.5;html=1;shape=mxgraph.flowchart.terminator;whiteSpace=wrap;" parent="1" vertex="1">
          <mxGeometry x="13.5" y="555" width="168" height="73.5" as="geometry" />
        </mxCell>
      </root>
    </mxGraphModel>
  </diagram>
</mxfile>
